HIERARCHY
ROOT root
{
	OFFSET 0.000000 0.000000 0.000000
	CHANNELS 6 Xposition Yposition Zposition Zrotation Yrotation Xrotation
	JOINT lhip
	{
		OFFSET 0.058581 -0.082280 -0.017664
		CHANNELS 3 Zrotation Yrotation Xrotation
		JOINT lknee
		{
			OFFSET 0.043451 -0.386469 0.008037
			CHANNELS 3 Zrotation Yrotation Xrotation
			JOINT lankle
			{
				OFFSET -0.014790 -0.426874 -0.037428
				CHANNELS 3 Zrotation Yrotation Xrotation
				JOINT ltoe
				{
					OFFSET 0.041054 -0.060286 0.122042
					CHANNELS 3 Zrotation Yrotation Xrotation
					End Site
					{
						OFFSET 0.000000 0.000000 0.000000
					}
				}
			}
		}
	}
	JOINT rhip
	{
		OFFSET -0.060310 -0.090513 -0.013543
		CHANNELS 3 Zrotation Yrotation Xrotation
		JOINT rknee
		{
			OFFSET -0.043257 -0.383688 -0.004843
			CHANNELS 3 Zrotation Yrotation Xrotation
			JOINT rankle
			{
				OFFSET 0.019056 -0.420046 -0.034562
				CHANNELS 3 Zrotation Yrotation Xrotation
				JOINT rtoe
				{
					OFFSET -0.034840 -0.062106 0.130323
					CHANNELS 3 Zrotation Yrotation Xrotation
					End Site
					{
						OFFSET 0.000000 0.000000 0.000000
					}
				}
			}
		}
	}
	JOINT lowerback
	{
		OFFSET 0.004439 0.124404 -0.038385
		CHANNELS 3 Zrotation Yrotation Xrotation
		JOINT upperback
		{
			OFFSET 0.004488 0.137956 0.026820
			CHANNELS 3 Zrotation Yrotation Xrotation
			JOINT chest
			{
				OFFSET -0.002265 0.056032 0.002855
				CHANNELS 3 Zrotation Yrotation Xrotation
				JOINT lowerneck
				{
					OFFSET -0.013390 0.211636 -0.033468
					CHANNELS 3 Zrotation Yrotation Xrotation
					JOINT upperneck
					{
						OFFSET 0.010113 0.088937 0.050410
						CHANNELS 3 Zrotation Yrotation Xrotation
						End Site
						{
							OFFSET 0.000000 0.000000 0.000000
						}
					}
				}
				JOINT lclavicle
				{
					OFFSET 0.071702 0.114000 -0.018898
					CHANNELS 3 Zrotation Yrotation Xrotation
					JOINT lshoulder
					{
						OFFSET 0.122921 0.045205 -0.019046
						CHANNELS 3 Zrotation Yrotation Xrotation
						JOINT lelbow
						{
							OFFSET 0.255332 -0.015649 -0.022946
							CHANNELS 3 Zrotation Yrotation Xrotation
							JOINT lwrist
							{
								OFFSET 0.265709 0.012698 -0.007375
								CHANNELS 3 Zrotation Yrotation Xrotation
								End Site
								{
									OFFSET 0.000000 0.000000 0.000000
								}
							}
						}
					}
				}
				JOINT rclavicle
				{
					OFFSET -0.082954 0.112472 -0.023707
					CHANNELS 3 Zrotation Yrotation Xrotation
					JOINT rshoulder
					{
						OFFSET -0.113228 0.046853 -0.008472
						CHANNELS 3 Zrotation Yrotation Xrotation
						JOINT relbow
						{
							OFFSET -0.260127 -0.014369 -0.031269
							CHANNELS 3 Zrotation Yrotation Xrotation
							JOINT rwrist
							{
								OFFSET -0.269108 0.006794 -0.006027
								CHANNELS 3 Zrotation Yrotation Xrotation
								End Site
								{
									OFFSET 0.000000 0.000000 0.000000
								}
							}
						}
					}
				}
			}
		}
	}
}
MOTION
Frames: 11
Frame Time: 0.033333
0.818958 2.858614 0.982012 -40.162175 0.754371 85.563179 5.148857 7.073693 10.535558 -4.501232 2.604830 -6.105752 1.200888 15.719666 -11.820690 0.000000 -0.000000 0.000000 -3.493335 -3.443130 -2.737073 1.053469 -5.030723 17.908958 4.159297 -9.505209 -12.907669 0.000000 -0.000000 0.000000 0.827828 -2.369630 3.018279 1.800071 -2.456264 7.827092 -0.834302 -1.080525 0.138325 2.248331 0.353075 -3.428734 -1.278402 0.313422 13.668951 -25.119062 6.588056 -0.907322 -57.538650 -3.216037 14.090999 3.049615 -29.442890 9.064161 -5.980105 -9.369178 -2.679444 25.589785 -0.339858 -0.281068 52.224064 3.174953 15.378942 -4.938586 27.245668 0.524465 6.822301 8.613009 -6.882283 
0.819115 2.858394 0.982038 -40.169287 0.761164 85.584750 5.140152 7.078578 10.527025 -4.501737 2.599728 -6.126252 1.174025 15.733429 -11.835059 0.000000 -0.000000 0.000000 -3.503189 -3.462723 -2.724340 1.092445 -4.949579 17.864750 4.271077 -9.607409 -12.919212 0.000000 -0.000000 0.000000 0.856190 -2.404593 2.963955 1.760200 -2.420044 7.860296 -0.832066 -1.064260 0.137028 2.266189 0.309016 -3.439005 -1.281143 0.353527 13.677500 -25.100788 6.601779 -0.841837 -57.627749 -3.158177 13.977292 3.164273 -29.589855 8.658095 -6.019830 -9.260108 -2.276370 25.604614 -0.298979 -0.196166 52.227382 3.230848 15.282312 -4.902576 27.221412 0.293202 6.846158 8.588852 -6.522495 
0.819184 2.858213 0.982056 -40.188681 0.755811 85.620018 5.122146 7.094037 10.501698 -4.502730 2.640043 -6.124282 1.168340 15.696649 -11.855316 0.000000 -0.000000 0.000000 -3.522434 -3.457595 -2.731893 1.083855 -4.973344 17.851655 4.277460 -9.562305 -12.917863 0.000000 -0.000000 0.000000 0.872915 -2.401578 2.825681 1.767406 -2.401163 8.004905 -0.849511 -1.084710 0.073153 2.247551 0.343452 -3.318235 -1.309039 0.286148 13.575935 -25.123177 6.489139 -0.789835 -57.735369 -3.101849 13.952516 3.306899 -29.528111 8.101355 -5.619431 -9.261882 -2.026586 25.632739 -0.181107 -0.097859 52.251080 3.196032 15.263817 -4.990077 27.242160 0.115188 6.676839 8.593672 -6.405444 
0.819215 2.858022 0.981965 -40.223203 0.747965 85.623130 5.121511 7.089164 10.490110 -4.525043 2.654180 -6.072307 1.185129 15.700513 -11.899543 0.000000 -0.000000 0.000000 -3.549407 -3.460355 -2.727729 1.089165 -4.980785 17.885415 4.284720 -9.542230 -12.934114 0.000000 -0.000000 0.000000 0.851442 -2.385856 2.803767 1.785033 -2.388655 8.010879 -0.846224 -1.082217 0.055455 2.227358 0.312556 -3.272410 -1.308218 0.245330 13.543310 -25.115219 6.479930 -0.793295 -57.801535 -3.113519 14.004612 3.286997 -29.564605 8.110651 -5.463638 -9.295968 -2.047600 25.674516 -0.179310 -0.087157 52.222758 3.188335 15.267558 -4.978762 27.259413 0.112863 6.620549 8.593115 -6.406123 
0.819198 2.857843 0.981907 -40.257261 0.742965 85.611250 5.116493 7.092451 10.506550 -4.532610 2.675409 -6.048800 1.192326 15.710430 -11.922152 0.000000 -0.000000 0.000000 -3.563532 -3.455997 -2.720677 1.089625 -4.973266 17.912965 4.295874 -9.523290 -12.947245 0.000000 -0.000000 0.000000 0.836203 -2.373371 2.791750 1.790719 -2.380730 8.022684 -0.842801 -1.079399 0.054037 2.232763 0.295402 -3.271272 -1.307325 0.216296 13.528365 -25.123804 6.481797 -0.795674 -57.825057 -3.127055 14.009959 3.273460 -29.642278 8.128472 -5.408121 -9.294678 -2.075479 25.693365 -0.177450 -0.084338 52.210690 3.196703 15.262750 -4.971470 27.260522 0.111879 6.604417 8.584631 -6.395595 
0.819131 2.857591 0.981836 -40.277392 0.747365 85.583818 5.120879 7.089223 10.544380 -4.543397 2.689390 -6.031004 1.196128 15.724259 -11.949311 0.000000 -0.000000 0.000000 -3.567987 -3.458772 -2.674212 1.098542 -4.947244 17.895602 4.305579 -9.524193 -12.956932 0.000000 -0.000000 0.000000 0.818093 -2.365593 2.806261 1.799219 -2.384108 7.969276 -0.832355 -1.066485 0.087040 2.228515 0.270987 -3.294343 -1.293737 0.181247 13.560752 -25.121818 6.495020 -0.802245 -57.817488 -3.213481 14.038872 3.169650 -29.681886 8.440732 -5.538355 -9.329078 -2.202837 25.713618 -0.197084 -0.085034 52.197119 3.226561 15.260809 -4.962406 27.226834 0.158813 6.646810 8.579111 -6.439313 
0.818971 2.857193 0.981813 -40.275036 0.754212 85.548427 5.121457 7.064825 10.622638 -4.553741 2.690164 -6.075788 1.189555 15.751429 -11.948807 0.000000 -0.000000 0.000000 -3.567212 -3.457408 -2.594885 1.123958 -4.912400 17.815115 4.316405 -9.549079 -12.940450 0.000000 -0.000000 0.000000 0.805218 -2.369419 2.821995 1.790074 -2.396772 7.842104 -0.815503 -1.069804 0.169425 2.218887 0.276612 -3.357233 -1.257004 0.167152 13.659392 -25.096980 6.486534 -0.768376 -57.755990 -3.423297 14.049544 3.000515 -29.537675 9.070644 -6.070438 -9.494032 -2.433910 25.720044 -0.218418 -0.075370 52.212048 3.318139 15.239720 -4.956679 27.085911 0.250667 6.802409 8.599415 -6.545326 
0.818787 2.856705 0.981839 -40.306064 0.758624 85.525362 5.112856 7.072999 10.712721 -4.554266 2.716102 -6.133298 1.182712 15.746237 -11.971612 0.000000 -0.000000 0.000000 -3.570519 -3.459909 -2.539228 1.127182 -4.901099 17.780969 4.325833 -9.516359 -12.943971 0.000000 -0.000000 0.000000 0.801063 -2.385373 2.757290 1.774970 -2.395897 7.850614 -0.820109 -1.078660 0.170270 2.243669 0.292743 -3.372084 -1.268199 0.168271 13.715763 -25.083399 6.470517 -0.717533 -57.780060 -3.453535 13.993554 3.033905 -29.614050 9.020601 -6.078394 -9.498177 -2.382428 25.706389 -0.198807 -0.036801 52.246496 3.347984 15.217390 -4.954831 27.020017 0.216277 6.803652 8.585091 -6.512912 
0.818655 2.856360 0.981857 -40.359340 0.759040 85.534101 5.105121 7.104007 10.745201 -4.553158 2.749861 -6.143433 1.182919 15.732152 -12.000132 0.000000 -0.000000 0.000000 -3.576056 -3.459797 -2.535043 1.110907 -4.911813 17.797832 4.324661 -9.459715 -12.968445 0.000000 -0.000000 0.000000 0.793223 -2.403040 2.669060 1.772213 -2.400564 7.918410 -0.829060 -1.096938 0.090091 2.253146 0.310262 -3.316387 -1.293637 0.204143 13.671676 -25.059889 6.442760 -0.676960 -57.899746 -3.304163 13.937026 3.227411 -29.792200 8.507985 -5.714840 -9.395655 -2.190524 25.669512 -0.148719 0.005304 52.290848 3.283975 15.209318 -4.979097 27.047073 0.132613 6.697086 8.564571 -6.431845 
0.818452 2.856004 0.981863 -40.451475 0.757118 85.550761 5.106544 7.147529 10.774234 -4.557537 2.805401 -6.144066 1.190462 15.716129 -12.010452 0.000000 -0.000000 0.000000 -3.600176 -3.468837 -2.515555 1.112021 -4.917437 17.796203 4.326404 -9.378995 -12.974057 0.000000 -0.000000 0.000000 0.791367 -2.404079 2.562765 1.775005 -2.399606 7.969952 -0.845175 -1.113555 0.018186 2.227442 0.315939 -3.195770 -1.337058 0.205587 13.553676 -25.033416 6.411950 -0.669039 -57.980995 -3.167457 13.930262 3.349604 -29.833728 8.119757 -5.427226 -9.341579 -2.061065 25.638334 -0.136430 0.003669 52.313386 3.180606 15.223945 -5.003718 27.115312 0.112462 6.628898 8.556646 -6.390248 
0.818246 2.855725 0.981861 -40.535848 0.757698 85.555267 5.105776 7.175203 10.812756 -4.556258 2.835462 -6.166315 1.189335 15.743487 -12.017771 0.000000 -0.000000 0.000000 -3.608125 -3.461578 -2.496767 1.122700 -4.879911 17.781509 4.340969 -9.340663 -12.972193 0.000000 -0.000000 0.000000 0.789388 -2.404392 2.498873 1.775097 -2.395122 7.958116 -0.850372 -1.115625 -0.004443 2.198139 0.333604 -3.161691 -1.360530 0.249199 13.485876 -25.014586 6.426537 -0.683067 -57.983826 -3.140765 13.932996 3.351868 -29.792860 8.128643 -5.459065 -9.329782 -2.050256 25.620541 -0.158524 0.000728 52.309211 3.149590 15.225761 -4.996302 27.139505 0.137607 6.663428 8.557355 -6.392183 
